<?xml version="1.0" encoding="UTF-8" standalone="no"?>
<svg width="800" height="400" xmlns="http://www.w3.org/2000/svg">
  <style>
    .text { font-family: sans-serif; font-size: 12px; }
    .title { font-family: sans-serif; font-size: 16px; font-weight: bold; }
    .bar-grpc { fill: rgba(54, 162, 235, 0.8); }
    .bar-net { fill: rgba(255, 99, 132, 0.8); }
  </style>

  <!-- Title -->
  <text x="400" y="30" text-anchor="middle" class="title">Transport Benchmark Comparison</text>

  <!-- Latency Chart (Left) -->
  <g transform="translate(50, 60)">
    <text x="150" y="-10" text-anchor="middle" class="title" font-size="14">Latency (ns/op)</text>
    <text x="150" y="5" text-anchor="middle" class="text" font-size="10">(Lower is better)</text>
    
    <!-- Y Axis -->
    <line x1="0" y1="0" x2="0" y2="300" stroke="black" width="2" />
    <line x1="0" y1="300" x2="300" y2="300" stroke="black" width="2" />

    <!-- Bars -->
    <!-- Scale: Max approx 60000ns. 300px height. Scale = 300/60000 = 0.005 -->
    <!-- Grpc Bar -->
    <rect x="50" y="42.620000" width="80" height="257.380000" class="bar-grpc" />
    <text x="90" y="37.620000" text-anchor="middle" class="text">51476</text>
    <text x="90" y="315" text-anchor="middle" class="text">gRPC</text>

    <!-- Net Bar -->
    <rect x="170" y="174.160000" width="80" height="125.840000" class="bar-net" />
    <text x="210" y="169.160000" text-anchor="middle" class="text">25168</text>
    <text x="210" y="315" text-anchor="middle" class="text">Network</text>
  </g>

  <!-- Throughput Chart (Right) -->
  <g transform="translate(450, 60)">
    <text x="150" y="-10" text-anchor="middle" class="title" font-size="14">Throughput (ops/sec)</text>
    <text x="150" y="5" text-anchor="middle" class="text" font-size="10">(Higher is better)</text>

    <!-- Y Axis -->
    <line x1="0" y1="0" x2="0" y2="300" stroke="black" width="2" />
    <line x1="0" y1="300" x2="300" y2="300" stroke="black" width="2" />

    <!-- Bars -->
    <!-- Scale: Max approx 300000 ops. 300px height. Scale = 300/300000 = 0.001 -->
    <!-- Grpc Bar -->
    <rect x="50" y="76.314846" width="80" height="223.685154" class="bar-grpc" />
    <text x="90" y="71.314846" text-anchor="middle" class="text">223685</text>
    <text x="90" y="315" text-anchor="middle" class="text">gRPC</text>

    <!-- Net Bar -->
    <rect x="170" y="242.916110" width="80" height="57.083890" class="bar-net" />
    <text x="210" y="237.916110" text-anchor="middle" class="text">57084</text>
    <text x="210" y="315" text-anchor="middle" class="text">Network</text>
  </g>
</svg>