<?xml version="1.0" encoding="UTF-8" standalone="no"?>
<svg width="800" height="600" xmlns="http://www.w3.org/2000/svg">
  <style>
    .text { font-family: sans-serif; font-size: 12px; }
    .title { font-family: sans-serif; font-size: 16px; font-weight: bold; }
    .axis { stroke: black; stroke-width: 1; }
    .grid { stroke: #ddd; stroke-width: 1; stroke-dasharray: 4; }
    .line-grpc { fill: none; stroke: rgba(54, 162, 235, 1); stroke-width: 2; }
    .line-net { fill: none; stroke: rgba(255, 99, 132, 1); stroke-width: 2; }
    .dot-grpc { fill: rgba(54, 162, 235, 1); }
    .dot-net { fill: rgba(255, 99, 132, 1); }
  </style>
  <text x="400" y="30" text-anchor="middle" class="title">Transport Benchmark Comparison</text>
<text x="400" y="50" text-anchor="middle" class="title" font-size="14">Latency (ns/op) - Lower is better</text><line x1="60" y1="270" x2="740" y2="270" class="axis" /><line x1="60" y1="60" x2="60" y2="270" class="axis" /><text x="60" y="285" text-anchor="middle" class="text">1KB</text><line x1="60" y1="270" x2="60" y2="275" class="axis" /><text x="287" y="285" text-anchor="middle" class="text">10KB</text><line x1="287" y1="270" x2="287" y2="275" class="axis" /><text x="513" y="285" text-anchor="middle" class="text">100KB</text><line x1="513" y1="270" x2="513" y2="275" class="axis" /><text x="740" y="285" text-anchor="middle" class="text">1000KB</text><line x1="740" y1="270" x2="740" y2="275" class="axis" /><circle cx="60.00" cy="244.60" r="4" class="dot-grpc" /><text x="60.00" y="244.60" text-anchor="middle" class="text" dy="-8">44231</text><circle cx="286.67" cy="242.75" r="4" class="dot-grpc" /><text x="286.67" y="242.75" text-anchor="middle" class="text" dy="-8">47448</text><circle cx="513.33" cy="220.07" r="4" class="dot-grpc" /><text x="513.33" y="220.07" text-anchor="middle" class="text" dy="-8">86942</text><circle cx="740.00" cy="79.09" r="4" class="dot-grpc" /><text x="740.00" y="79.09" text-anchor="middle" class="text" dy="-8">332440</text><polyline points="60.00,244.60 286.67,242.75 513.33,220.07 740.00,79.09 " class="line-grpc" /><circle cx="60.00" cy="255.41" r="4" class="dot-net" /><text x="60.00" y="255.41" text-anchor="middle" class="text" dy="-8">25401</text><circle cx="286.67" cy="254.28" r="4" class="dot-net" /><text x="286.67" y="254.28" text-anchor="middle" class="text" dy="-8">27372</text><circle cx="513.33" cy="244.85" r="4" class="dot-net" /><text x="513.33" y="244.85" text-anchor="middle" class="text" dy="-8">43791</text><circle cx="740.00" cy="146.00" r="4" class="dot-net" /><text x="740.00" y="146.00" text-anchor="middle" class="text" dy="-8">215925</text><polyline points="60.00,255.41 286.67,254.28 513.33,244.85 740.00,146.00 " class="line-net" /><text x="400" y="320" text-anchor="middle" class="title" font-size="14">Throughput (ops/sec) - Higher is better</text><line x1="60" y1="540" x2="740" y2="540" class="axis" /><line x1="60" y1="330" x2="60" y2="540" class="axis" /><text x="60" y="555" text-anchor="middle" class="text">1KB</text><line x1="60" y1="540" x2="60" y2="545" class="axis" /><text x="287" y="555" text-anchor="middle" class="text">10KB</text><line x1="287" y1="540" x2="287" y2="545" class="axis" /><text x="513" y="555" text-anchor="middle" class="text">100KB</text><line x1="513" y1="540" x2="513" y2="545" class="axis" /><text x="740" y="555" text-anchor="middle" class="text">1000KB</text><line x1="740" y1="540" x2="740" y2="545" class="axis" /><circle cx="60.00" cy="349.09" r="4" class="dot-grpc" /><text x="60.00" y="349.09" text-anchor="middle" class="text" dy="-8">308481</text><circle cx="286.67" cy="395.91" r="4" class="dot-grpc" /><text x="286.67" y="395.91" text-anchor="middle" class="text" dy="-8">232828</text><circle cx="513.33" cy="516.79" r="4" class="dot-grpc" /><text x="513.33" y="516.79" text-anchor="middle" class="text" dy="-8">37510</text><circle cx="740.00" cy="537.27" r="4" class="dot-grpc" /><text x="740.00" y="537.27" text-anchor="middle" class="text" dy="-8">4416</text><polyline points="60.00,349.09 286.67,395.91 513.33,516.79 740.00,537.27 " class="line-grpc" /><circle cx="60.00" cy="502.09" r="4" class="dot-net" /><text x="60.00" y="502.09" text-anchor="middle" class="text" dy="-8">61256</text><circle cx="286.67" cy="505.19" r="4" class="dot-net" /><text x="286.67" y="505.19" text-anchor="middle" class="text" dy="-8">56240</text><circle cx="513.33" cy="516.10" r="4" class="dot-net" /><text x="513.33" y="516.10" text-anchor="middle" class="text" dy="-8">38612</text><circle cx="740.00" cy="535.24" r="4" class="dot-net" /><text x="740.00" y="535.24" text-anchor="middle" class="text" dy="-8">7698</text><polyline points="60.00,502.09 286.67,505.19 513.33,516.10 740.00,535.24 " class="line-net" />
<g transform="translate(330, 570)">
  <rect x="0" y="0" width="20" height="20" class="bar-grpc" />
  <text x="25" y="15" class="text">gRPC</text>
  <rect x="100" y="0" width="20" height="20" class="bar-net" />
  <text x="125" y="15" class="text">Network</text>
</g></svg>