<?xml version="1.0" encoding="UTF-8" standalone="no"?>
<svg width="800" height="600" xmlns="http://www.w3.org/2000/svg">
  <style>
    .text { font-family: sans-serif; font-size: 12px; }
    .title { font-family: sans-serif; font-size: 16px; font-weight: bold; }
    .axis { stroke: black; stroke-width: 1; }
    .grid { stroke: #ddd; stroke-width: 1; stroke-dasharray: 4; }
    .line-grpc { fill: none; stroke: rgba(54, 162, 235, 1); stroke-width: 2; }
    .line-net { fill: none; stroke: rgba(255, 99, 132, 1); stroke-width: 2; }
    .dot-grpc { fill: rgba(54, 162, 235, 1); }
    .dot-net { fill: rgba(255, 99, 132, 1); }
  </style>
  <text x="400" y="30" text-anchor="middle" class="title">Transport Benchmark Comparison</text>
<text x="400" y="50" text-anchor="middle" class="title" font-size="14">Latency (ns/op) - Lower is better</text><line x1="60" y1="270" x2="740" y2="270" class="axis" /><line x1="60" y1="60" x2="60" y2="270" class="axis" /><text x="60" y="285" text-anchor="middle" class="text">1KB</text><line x1="60" y1="270" x2="60" y2="275" class="axis" /><text x="287" y="285" text-anchor="middle" class="text">10KB</text><line x1="287" y1="270" x2="287" y2="275" class="axis" /><text x="513" y="285" text-anchor="middle" class="text">100KB</text><line x1="513" y1="270" x2="513" y2="275" class="axis" /><text x="740" y="285" text-anchor="middle" class="text">1000KB</text><line x1="740" y1="270" x2="740" y2="275" class="axis" /><circle cx="60.00" cy="245.71" r="4" class="dot-grpc" /><text x="60.00" y="245.71" text-anchor="middle" class="text" dy="-8">47954</text><circle cx="286.67" cy="243.39" r="4" class="dot-grpc" /><text x="286.67" y="243.39" text-anchor="middle" class="text" dy="-8">52550</text><circle cx="513.33" cy="221.04" r="4" class="dot-grpc" /><text x="513.33" y="221.04" text-anchor="middle" class="text" dy="-8">96682</text><circle cx="740.00" cy="79.09" r="4" class="dot-grpc" /><text x="740.00" y="79.09" text-anchor="middle" class="text" dy="-8">376971</text><polyline points="60.00,245.71 286.67,243.39 513.33,221.04 740.00,79.09 " class="line-grpc" /><circle cx="60.00" cy="257.30" r="4" class="dot-net" /><text x="60.00" y="257.30" text-anchor="middle" class="text" dy="-8">25074</text><circle cx="286.67" cy="255.67" r="4" class="dot-net" /><text x="286.67" y="255.67" text-anchor="middle" class="text" dy="-8">28303</text><circle cx="513.33" cy="242.52" r="4" class="dot-net" /><text x="513.33" y="242.52" text-anchor="middle" class="text" dy="-8">54253</text><circle cx="740.00" cy="136.53" r="4" class="dot-net" /><text x="740.00" y="136.53" text-anchor="middle" class="text" dy="-8">263551</text><polyline points="60.00,257.30 286.67,255.67 513.33,242.52 740.00,136.53 " class="line-net" /><text x="400" y="320" text-anchor="middle" class="title" font-size="14">Throughput (ops/sec) - Higher is better</text><line x1="60" y1="540" x2="740" y2="540" class="axis" /><line x1="60" y1="330" x2="60" y2="540" class="axis" /><text x="60" y="555" text-anchor="middle" class="text">1KB</text><line x1="60" y1="540" x2="60" y2="545" class="axis" /><text x="287" y="555" text-anchor="middle" class="text">10KB</text><line x1="287" y1="540" x2="287" y2="545" class="axis" /><text x="513" y="555" text-anchor="middle" class="text">100KB</text><line x1="513" y1="540" x2="513" y2="545" class="axis" /><text x="740" y="555" text-anchor="middle" class="text">1000KB</text><line x1="740" y1="540" x2="740" y2="545" class="axis" /><circle cx="60.00" cy="349.09" r="4" class="dot-grpc" /><text x="60.00" y="349.09" text-anchor="middle" class="text" dy="-8">232187</text><circle cx="286.67" cy="422.72" r="4" class="dot-grpc" /><text x="286.67" y="422.72" text-anchor="middle" class="text" dy="-8">142635</text><circle cx="513.33" cy="511.74" r="4" class="dot-grpc" /><text x="513.33" y="511.74" text-anchor="middle" class="text" dy="-8">34373</text><circle cx="740.00" cy="536.62" r="4" class="dot-grpc" /><text x="740.00" y="536.62" text-anchor="middle" class="text" dy="-8">4115</text><polyline points="60.00,349.09 286.67,422.72 513.33,511.74 740.00,536.62 " class="line-grpc" /><circle cx="60.00" cy="491.61" r="4" class="dot-net" /><text x="60.00" y="491.61" text-anchor="middle" class="text" dy="-8">58848</text><circle cx="286.67" cy="497.37" r="4" class="dot-net" /><text x="286.67" y="497.37" text-anchor="middle" class="text" dy="-8">51844</text><circle cx="513.33" cy="516.90" r="4" class="dot-net" /><text x="513.33" y="516.90" text-anchor="middle" class="text" dy="-8">28093</text><circle cx="740.00" cy="534.92" r="4" class="dot-net" /><text x="740.00" y="534.92" text-anchor="middle" class="text" dy="-8">6176</text><polyline points="60.00,491.61 286.67,497.37 513.33,516.90 740.00,534.92 " class="line-net" />
<g transform="translate(330, 570)">
  <rect x="0" y="0" width="20" height="20" class="bar-grpc" />
  <text x="25" y="15" class="text">gRPC</text>
  <rect x="100" y="0" width="20" height="20" class="bar-net" />
  <text x="125" y="15" class="text">Network</text>
</g></svg>